<svg id="Capa_1" enable-background="new 0 0 512 512" height="512" viewBox="0 0 512 512" width="512" xmlns="http://www.w3.org/2000/svg"><g><g><g><g><g><path d="m356.2 263.655c-.029 0-.059 0-.088-.001-5.523-.047-9.961-4.563-9.914-10.086.04-4.603.081-9.691.12-14.999h-32.436c-3.538 0-6.813-1.87-8.611-4.916-1.799-3.046-1.854-6.817-.145-9.915 6.731-12.201 29.071-52.473 33.926-58.43 4.563-5.597 10.785-7.852 16.653-6.037 5.903 1.829 10.092 7.501 10.671 14.451.251 3.018.192 24.573.076 44.847h.803c5.522 0 10 4.477 10 10s-4.478 10-10 10h-.937c-.051 6.826-.097 12.314-.121 15.171-.047 5.494-4.514 9.914-9.997 9.915zm-25.321-45.085h15.571c.058-10.114.1-19.867.107-27.569-4.347 7.466-9.935 17.304-15.678 27.569z"/></g></g></g><g><g><g><path d="m187.061 263.655c-.029 0-.059 0-.088-.001-5.522-.047-9.961-4.563-9.914-10.085.04-4.604.081-9.691.12-14.999h-32.436c-3.538 0-6.813-1.87-8.611-4.916s-1.854-6.817-.145-9.915c6.731-12.201 29.071-52.473 33.926-58.43 4.563-5.597 10.788-7.854 16.651-6.037 5.903 1.828 10.093 7.5 10.673 14.449.251 3.019.192 24.575.075 44.849h.804c5.522 0 10 4.477 10 10s-4.478 10-10 10h-.937c-.051 6.826-.097 12.314-.121 15.171-.046 5.493-4.514 9.913-9.997 9.914zm-25.321-45.085h15.57c.059-10.112.1-19.867.107-27.568-4.347 7.466-9.934 17.303-15.677 27.568z"/></g></g></g><g><g><g><path d="m257.193 267.865c-19.066 0-34.578-15.512-34.578-34.578v-39.306c0-19.066 15.512-34.578 34.578-34.578s34.578 15.512 34.578 34.578v39.306c.001 19.066-15.511 34.578-34.578 34.578zm0-88.463c-8.038 0-14.578 6.54-14.578 14.578v39.306c0 8.039 6.54 14.578 14.578 14.578s14.578-6.539 14.578-14.578v-39.306c.001-8.038-6.54-14.578-14.578-14.578z"/></g></g></g><g><path d="m384.957 310.199h-257.914c-18.643 0-33.809-15.167-33.809-33.809v-126.255c0-18.642 15.166-33.808 33.809-33.808h257.914c18.643 0 33.809 15.166 33.809 33.808v126.255c0 18.643-15.166 33.809-33.809 33.809zm-257.914-173.872c-7.614 0-13.809 6.194-13.809 13.808v126.255c0 7.614 6.194 13.809 13.809 13.809h257.914c7.614 0 13.809-6.194 13.809-13.809v-126.255c0-7.614-6.194-13.808-13.809-13.808z"/></g><path d="m502 353.502h-25.617v-251.683c0-27.195-22.125-49.319-49.319-49.319h-342.127c-27.194 0-49.319 22.125-49.319 49.319v251.683h-25.618c-5.523 0-10 4.477-10 10v32.399c0 35.069 28.53 63.599 63.599 63.599h147.195c5.523 0 10-4.477 10-10s-4.477-10-10-10h-147.195c-24.04 0-43.599-19.558-43.599-43.599v-22.399h121.319v31.937c0 5.523 4.478 10 10 10h209.361c5.522 0 10-4.477 10-10v-31.937h121.32v22.399c0 24.04-19.559 43.599-43.599 43.599h-147.195c-5.522 0-10 4.477-10 10s4.478 10 10 10h147.195c35.068 0 63.599-28.53 63.599-63.599v-32.399c0-5.523-4.478-10-10-10zm-151.319 41.937h-189.362v-21.937h189.361v21.937zm-295.064-41.937v-251.683c0-16.167 13.152-29.319 29.319-29.319h342.127c16.167 0 29.319 13.153 29.319 29.319v251.683z"/><g><g><path d="m256.18 459.5c-4.24 0-8.096-2.786-9.46-6.789-1.288-3.78-.144-8.094 2.866-10.727 3.279-2.868 8.171-3.26 11.87-.97 3.444 2.132 5.296 6.286 4.564 10.275-.861 4.687-5.067 8.211-9.84 8.211z"/></g></g></g></g></svg>